<svg width="24" height="24" viewBox="0 0 24 24" fill="none" xmlns="http://www.w3.org/2000/svg">
  <path d="M12 2C6.48 2 2 6.48 2 12C2 16.42 5.87 20.17 10.84 21.5C11.34 21.58 11.5 21.27 11.5 21C11.5 20.77 11.5 20.14 11.5 19.31C7.73 19.91 6.97 17.62 6.97 17.62C6.37 16.41 5.49 16.1 5.49 16.1C4.29 15.49 5.55 15.5 5.55 15.5C6.84 15.57 7.53 16.53 7.53 16.53C8.68 18.07 10.35 17.66 11.5 17.41C11.63 16.74 11.99 16.29 12.37 16.04C9.49 15.79 6.47 14.94 6.47 11.18C6.47 10.12 6.97 9.25 7.71 8.57C7.57 8.31 7.13 7.27 7.81 6.02C7.81 6.02 8.75 5.75 11.48 7.32C12.29 7.09 13.15 6.98 14 6.98C14.85 6.98 15.71 7.09 16.52 7.32C19.25 5.75 20.19 6.02 20.19 6.02C20.87 7.27 20.43 8.31 20.29 8.57C21.03 9.25 21.53 10.12 21.53 11.18C21.53 14.95 18.5 15.79 15.61 16.03C16.08 16.34 16.5 16.95 16.5 17.89C16.5 19.25 16.5 20.67 16.5 21C16.5 21.27 16.66 21.59 17.17 21.5C22.14 20.16 26 16.42 26 12C26 6.48 21.52 2 16 2H12Z" fill="#5e3023"/>
  <path d="M12 2C6.48 2 2 6.48 2 12C2 16.42 5.87 20.17 10.84 21.5C11.34 21.58 11.5 21.27 11.5 21C11.5 20.77 11.5 20.14 11.5 19.31C7.73 19.91 6.97 17.62 6.97 17.62C6.37 16.41 5.49 16.1 5.49 16.1C4.29 15.49 5.55 15.5 5.55 15.5C6.84 15.57 7.53 16.53 7.53 16.53C8.68 18.07 10.35 17.66 11.5 17.41C11.63 16.74 11.99 16.29 12.37 16.04C9.49 15.79 6.47 14.94 6.47 11.18C6.47 10.12 6.97 9.25 7.71 8.57C7.57 8.31 7.13 7.27 7.81 6.02C7.81 6.02 8.75 5.75 11.48 7.32C12.29 7.09 13.15 6.98 14 6.98C14.85 6.98 15.71 7.09 16.52 7.32C19.25 5.75 20.19 6.02 20.19 6.02C20.87 7.27 20.43 8.31 20.29 8.57C21.03 9.25 21.53 10.12 21.53 11.18C21.53 14.95 18.5 15.79 15.61 16.03C16.08 16.34 16.5 16.95 16.5 17.89C16.5 19.25 16.5 20.67 16.5 21C16.5 21.27 16.66 21.59 17.17 21.5C22.14 20.16 26 16.42 26 12C26 6.48 21.52 2 16 2H12Z" stroke="#8b4513" stroke-width="1"/>
  <path d="M9 19C4 20.5 4 16.5 2 16" stroke="#8b4513" stroke-width="1.5" stroke-linecap="round" stroke-linejoin="round"/>
</svg> 