<svg width="24" height="24" viewBox="0 0 24 24" fill="none" xmlns="http://www.w3.org/2000/svg">
  <path d="M10 13C10.4295 13.5741 10.9774 14.0492 11.6066 14.3929C12.2357 14.7367 12.9315 14.9411 13.6467 14.9923C14.3618 15.0435 15.0799 14.9404 15.7482 14.6898C16.4164 14.4392 17.0186 14.0471 17.51 13.54L20.51 10.54C21.4647 9.54925 21.9852 8.23052 21.9759 6.86129C21.9666 5.49206 21.4283 4.18114 20.4606 3.20247C19.4929 2.2238 18.1883 1.67195 16.8191 1.64754C15.4498 1.62313 14.127 2.12772 13.12 3.06996L11.39 4.78996" stroke="#5e3023" stroke-width="2" stroke-linecap="round" stroke-linejoin="round"/>
  <path d="M14 11C13.5705 10.4259 13.0226 9.95077 12.3934 9.60702C11.7642 9.26327 11.0684 9.05888 10.3533 9.00766C9.63816 8.95645 8.92003 9.05961 8.25176 9.31019C7.5835 9.56077 6.98137 9.95286 6.48996 10.46L3.48996 13.46C2.53525 14.4507 2.01476 15.7695 2.02405 17.1387C2.03334 18.5079 2.57166 19.8189 3.53934 20.7975C4.50703 21.7762 5.81164 22.328 7.18087 22.3524C8.5501 22.3768 9.87292 21.8723 10.88 20.93L12.6 19.21" stroke="#5e3023" stroke-width="2" stroke-linecap="round" stroke-linejoin="round"/>
  <path d="M10 13C10.4295 13.5741 10.9774 14.0492 11.6066 14.3929C12.2357 14.7367 12.9315 14.9411 13.6467 14.9923C14.3618 15.0435 15.0799 14.9404 15.7482 14.6898C16.4164 14.4392 17.0186 14.0471 17.51 13.54L20.51 10.54C21.4647 9.54925 21.9852 8.23052 21.9759 6.86129C21.9666 5.49206 21.4283 4.18114 20.4606 3.20247C19.4929 2.2238 18.1883 1.67195 16.8191 1.64754C15.4498 1.62313 14.127 2.12772 13.12 3.06996L11.39 4.78996" stroke="#8b4513" stroke-width="1" stroke-linecap="round" stroke-linejoin="round"/>
  <path d="M14 11C13.5705 10.4259 13.0226 9.95077 12.3934 9.60702C11.7642 9.26327 11.0684 9.05888 10.3533 9.00766C9.63816 8.95645 8.92003 9.05961 8.25176 9.31019C7.5835 9.56077 6.98137 9.95286 6.48996 10.46L3.48996 13.46C2.53525 14.4507 2.01476 15.7695 2.02405 17.1387C2.03334 18.5079 2.57166 19.8189 3.53934 20.7975C4.50703 21.7762 5.81164 22.328 7.18087 22.3524C8.5501 22.3768 9.87292 21.8723 10.88 20.93L12.6 19.21" stroke="#8b4513" stroke-width="1" stroke-linecap="round" stroke-linejoin="round"/>
</svg> 